<?xml version="1.0" encoding="UTF-8" standalone="no" ?>
<!DOCTYPE svg PUBLIC "-//W3C//DTD SVG 1.1//EN" "http://www.w3.org/Graphics/SVG/1.1/DTD/svg11.dtd">
<svg xmlns="http://www.w3.org/2000/svg" xmlns:xlink="http://www.w3.org/1999/xlink" version="1.1" width="100" height="100" viewBox="441 441 100 100" xml:space="preserve">
<desc>Created with Fabric.js 5.2.4</desc>
<defs>
</defs>
<rect x="0" y="0" width="100%" height="100%" fill="transparent"></rect>
<g transform="matrix(1 0 0 1 50 50)" id="aa5ebfb8-09dd-4c15-a542-23c85d2bf5f3"  >
<rect style="stroke: none; stroke-width: 1; stroke-dasharray: none; stroke-linecap: butt; stroke-dashoffset: 0; stroke-linejoin: miter; stroke-miterlimit: 4; fill: rgb(255,255,255); fill-rule: nonzero; opacity: 1; visibility: hidden;" vector-effect="non-scaling-stroke"  x="-50" y="-50" rx="0" ry="0" width="100" height="100" />
</g>
<g transform="matrix(0 0 0 0 0 0)" id="90439117-ff8d-429b-848e-d51951b6bec5"  >
</g>
<g transform="matrix(0.13 0 0 0.13 99.91 99.87)"  >
<path style="stroke: none; stroke-width: 1; stroke-dasharray: none; stroke-linecap: butt; stroke-dashoffset: 0; stroke-linejoin: miter; stroke-miterlimit: 4; fill: rgb(0,0,0); fill-rule: nonzero; opacity: 1;" vector-effect="non-scaling-stroke"  transform=" translate(-32, -32)" d="M 32 1 C 20.4 1 11 10.4 11 22 L 11 62 C 11 62.6 11.4 63 12 63 L 52 63 C 52.6 63 53 62.6 53 62 L 53 22 C 53 10.4 43.6 1 32 1 z M 51 61 L 13 61 L 13 22 C 13 11.5 21.5 3 32 3 C 42.5 3 51 11.5 51 22 L 51 61 z" stroke-linecap="round" />
</g>
<g transform="matrix(0.13 0 0 0.13 99.93 99.89)"  >
<path style="stroke: none; stroke-width: 1; stroke-dasharray: none; stroke-linecap: butt; stroke-dashoffset: 0; stroke-linejoin: miter; stroke-miterlimit: 4; fill: rgb(0,0,0); fill-rule: nonzero; opacity: 1;" vector-effect="non-scaling-stroke"  transform=" translate(-32, -32)" d="M 32 6 C 23.2 6 16 13.2 16 22 L 16 57 C 16 57.6 16.4 58 17 58 L 47 58 C 47.6 58 48 57.6 48 57 L 48 22 C 48 13.2 40.8 6 32 6 z M 18 22 C 18 14.6 23.7 8.6 31 8.1 L 31 56 L 18 56 L 18 22 z M 46 56 L 33 56 L 33 8.1 C 40.3 8.6 46 14.7 46 22 L 46 56 z" stroke-linecap="round" />
</g>
<g transform="matrix(0.13 0 0 0.13 99.18 99.98)"  >
<path style="stroke: none; stroke-width: 1; stroke-dasharray: none; stroke-linecap: butt; stroke-dashoffset: 0; stroke-linejoin: miter; stroke-miterlimit: 4; fill: rgb(0,0,0); fill-rule: nonzero; opacity: 1;" vector-effect="non-scaling-stroke"  transform=" translate(-26, -32)" d="M 26 29 C 24.3 29 23 30.3 23 32 C 23 33.7 24.3 35 26 35 C 27.7 35 29 33.7 29 32 C 29 30.299999999999997 27.7 29 26 29 z M 26 33 C 25.4 33 25 32.6 25 32 C 25 31.4 25.4 31 26 31 C 26.6 31 27 31.4 27 32 C 27 32.6 26.6 33 26 33 z" stroke-linecap="round" />
</g>
<g transform="matrix(0.13 0 0 0.13 100.78 99.98)"  >
<path style="stroke: none; stroke-width: 1; stroke-dasharray: none; stroke-linecap: butt; stroke-dashoffset: 0; stroke-linejoin: miter; stroke-miterlimit: 4; fill: rgb(0,0,0); fill-rule: nonzero; opacity: 1;" vector-effect="non-scaling-stroke"  transform=" translate(-38, -32)" d="M 38 29 C 36.3 29 35 30.3 35 32 C 35 33.7 36.3 35 38 35 C 39.7 35 41 33.7 41 32 C 41 30.299999999999997 39.7 29 38 29 z M 38 33 C 37.4 33 37 32.6 37 32 C 37 31.4 37.4 31 38 31 C 38.6 31 39 31.4 39 32 C 39 32.6 38.6 33 38 33 z" stroke-linecap="round" />
</g>
<g transform="matrix(1 0 0 1 490 491)"  >
<rect style="stroke: none; stroke-width: 1; stroke-dasharray: none; stroke-linecap: butt; stroke-dashoffset: 0; stroke-linejoin: miter; stroke-miterlimit: 4; fill: rgb(255,255,255); fill-rule: nonzero; opacity: 1; visibility: hidden;" vector-effect="non-scaling-stroke"  x="-540" y="-540" rx="0" ry="0" width="1080" height="1080" />
</g>
<g transform="matrix(1.45 0 0 1.45 490 491)"  >
<path style="stroke: none; stroke-width: 1; stroke-dasharray: none; stroke-linecap: butt; stroke-dashoffset: 0; stroke-linejoin: miter; stroke-miterlimit: 4; fill: rgb(0,0,0); fill-rule: nonzero; opacity: 1;" vector-effect="non-scaling-stroke"  transform=" translate(-32, -32)" d="M 32 1 C 20.4 1 11 10.4 11 22 L 11 62 C 11 62.6 11.4 63 12 63 L 52 63 C 52.6 63 53 62.6 53 62 L 53 22 C 53 10.4 43.6 1 32 1 z M 51 61 L 13 61 L 13 22 C 13 11.5 21.5 3 32 3 C 42.5 3 51 11.5 51 22 L 51 61 z" stroke-linecap="round" />
</g>
<g transform="matrix(1.45 0 0 1.45 489.99 490.98)"  >
<path style="stroke: none; stroke-width: 1; stroke-dasharray: none; stroke-linecap: butt; stroke-dashoffset: 0; stroke-linejoin: miter; stroke-miterlimit: 4; fill: rgb(0,0,0); fill-rule: nonzero; opacity: 1;" vector-effect="non-scaling-stroke"  transform=" translate(-32, -32)" d="M 32 6 C 23.2 6 16 13.2 16 22 L 16 57 C 16 57.6 16.4 58 17 58 L 47 58 C 47.6 58 48 57.6 48 57 L 48 22 C 48 13.2 40.8 6 32 6 z M 18 22 C 18 14.6 23.7 8.6 31 8.1 L 31 56 L 18 56 L 18 22 z M 46 56 L 33 56 L 33 8.1 C 40.3 8.6 46 14.7 46 22 L 46 56 z" stroke-linecap="round" />
</g>
<g transform="matrix(1.45 0 0 1.45 481.26 490.89)"  >
<path style="stroke: none; stroke-width: 1; stroke-dasharray: none; stroke-linecap: butt; stroke-dashoffset: 0; stroke-linejoin: miter; stroke-miterlimit: 4; fill: rgb(0,0,0); fill-rule: nonzero; opacity: 1;" vector-effect="non-scaling-stroke"  transform=" translate(-26, -32)" d="M 26 29 C 24.3 29 23 30.3 23 32 C 23 33.7 24.3 35 26 35 C 27.7 35 29 33.7 29 32 C 29 30.299999999999997 27.7 29 26 29 z M 26 33 C 25.4 33 25 32.6 25 32 C 25 31.4 25.4 31 26 31 C 26.6 31 27 31.4 27 32 C 27 32.6 26.6 33 26 33 z" stroke-linecap="round" />
</g>
<g transform="matrix(1.45 0 0 1.45 498.61 490.89)"  >
<path style="stroke: none; stroke-width: 1; stroke-dasharray: none; stroke-linecap: butt; stroke-dashoffset: 0; stroke-linejoin: miter; stroke-miterlimit: 4; fill: rgb(0,0,0); fill-rule: nonzero; opacity: 1;" vector-effect="non-scaling-stroke"  transform=" translate(-38, -32)" d="M 38 29 C 36.3 29 35 30.3 35 32 C 35 33.7 36.3 35 38 35 C 39.7 35 41 33.7 41 32 C 41 30.299999999999997 39.7 29 38 29 z M 38 33 C 37.4 33 37 32.6 37 32 C 37 31.4 37.4 31 38 31 C 38.6 31 39 31.4 39 32 C 39 32.6 38.6 33 38 33 z" stroke-linecap="round" />
</g>
</svg>