<?xml version="1.0" encoding="utf-8"?>
<!-- Generator: Adobe Illustrator 20.1.0, SVG Export Plug-In . SVG Version: 6.00 Build 0)  -->
<!DOCTYPE svg PUBLIC "-//W3C//DTD SVG 1.1//EN" "http://www.w3.org/Graphics/SVG/1.1/DTD/svg11.dtd">
<svg version="1.1" id="Layer_1" xmlns="http://www.w3.org/2000/svg" xmlns:xlink="http://www.w3.org/1999/xlink" x="0px" y="0px"
	 viewBox="0 0 24 24" style="enable-background:new 0 0 24 24;" xml:space="preserve">
<style type="text/css">
	.st0{fill:#1D1D1B;}
</style>
<path class="st0" d="M15.5,13.9c-2.3,0-4.2-1.9-4.2-4.2c0-1.8,1.1-3.3,2.7-3.9c-0.5-0.1-1-0.2-1.5-0.2c-3.3,0-5.9,2.7-5.9,5.9
	s2.7,5.9,5.9,5.9c2.8,0,5.1-1.9,5.7-4.4C17.4,13.5,16.5,13.9,15.5,13.9z M12.4,15.7c-2.4,0-4.3-1.9-4.3-4.3C8.1,10,8.8,8.8,9.8,8
	C9.7,8.5,9.6,9.1,9.6,9.6c0,2.8,1.9,5.1,4.5,5.7C13.5,15.6,13,15.7,12.4,15.7z"/>
</svg>
